<svg width="49" height="13" viewBox="0 0 49 13" fill="none" xmlns="http://www.w3.org/2000/svg">
<path fill-rule="evenodd" clip-rule="evenodd" d="M6.02137 12.0427C9.34688 12.0427 12.0427 9.34688 12.0427 6.02137C12.0427 2.69586 9.34688 0 6.02137 0C2.69586 0 0 2.69586 0 6.02137C0 9.34688 2.69586 12.0427 6.02137 12.0427Z" fill="#F9FAFB"/>
<path fill-rule="evenodd" clip-rule="evenodd" d="M24.0855 12.0427C27.411 12.0427 30.1068 9.34688 30.1068 6.02137C30.1068 2.69586 27.411 0 24.0855 0C20.7599 0 18.0641 2.69586 18.0641 6.02137C18.0641 9.34688 20.7599 12.0427 24.0855 12.0427Z" fill="#F9FAFB"/>
<path fill-rule="evenodd" clip-rule="evenodd" d="M42.1495 12.0427C45.475 12.0427 48.1709 9.34688 48.1709 6.02137C48.1709 2.69586 45.475 0 42.1495 0C38.824 0 36.1282 2.69586 36.1282 6.02137C36.1282 9.34688 38.824 12.0427 42.1495 12.0427Z" fill="#F9FAFB"/>
</svg>
